<?xml version="1.0" encoding="UTF-8" standalone="no"?>
<!-- Created with Inkscape (http://www.inkscape.org/) -->

<svg
   width="128"
   height="128"
   viewBox="0 0 33.866667 33.866667"
   version="1.1"
   id="svg1"
   xml:space="preserve"
   inkscape:export-filename="bitmap.svg"
   inkscape:export-xdpi="96"
   inkscape:export-ydpi="96"
   xmlns:inkscape="http://www.inkscape.org/namespaces/inkscape"
   xmlns:sodipodi="http://sodipodi.sourceforge.net/DTD/sodipodi-0.dtd"
   xmlns="http://www.w3.org/2000/svg"
   xmlns:svg="http://www.w3.org/2000/svg"><sodipodi:namedview
     id="namedview1"
     pagecolor="#ffffff"
     bordercolor="#000000"
     borderopacity="0.25"
     inkscape:showpageshadow="2"
     inkscape:pageopacity="0.0"
     inkscape:pagecheckerboard="0"
     inkscape:deskcolor="#d1d1d1"
     inkscape:document-units="mm"><inkscape:page
       x="0"
       y="0"
       width="33.866669"
       height="33.866669"
       id="page2"
       margin="0"
       bleed="0" /></sodipodi:namedview><defs
     id="defs1" /><g
     inkscape:label="Capa 1"
     inkscape:groupmode="layer"
     id="layer1"><path
       style="fill:#303030;fill-opacity:1;stroke-width:0.195659"
       d="M 7.6649734,26.18754 C 3.4492373,21.964027 0,18.494455 0,18.477381 c 0,-0.01706 0.65618937,-0.03107 1.4582,-0.03107 h 1.4582025 l 6.2378455,6.248775 6.237846,6.248783 v 1.461382 c 0,0.803769 -0.01387,1.461391 -0.03107,1.461391 -0.01706,0 -3.480312,-3.455608 -7.696048,-7.679121 z m 9.7545736,6.217965 V 30.944352 L 24.153541,24.19791 30.887536,17.451471 23.646787,10.197352 16.406037,2.9432323 9.6612457,9.6999227 2.9164507,16.456612 H 1.4858105 c -0.78685313,0 -1.44382117,-0.01307 -1.45993048,-0.02932 C -0.00684005,16.394517 16.340435,0 16.405819,0 c 0.02268,0 3.960816,3.9265851 8.751149,8.7257435 l 8.709699,8.7257385 -8.192488,8.207591 c -4.505869,4.514174 -8.206469,8.207594 -8.22356,8.207594 -0.01703,0 -0.03107,-0.657518 -0.03107,-1.46115 z M 10.59239,23.275529 4.7790694,17.451437 10.602771,11.617053 16.426472,5.7826758 22.219214,11.585928 c 3.186008,3.191791 5.792742,5.821959 5.792742,5.844818 0,0.02292 -2.611406,2.65771 -5.803124,5.85522 l -5.803123,5.813658 z m 10.157973,-10.176566 -4.344445,-4.3525612 -4.344542,4.3525112 -4.3445441,4.35251 4.3444461,4.352559 4.344442,4.352561 4.344544,-4.352511 4.344542,-4.352508 z m -7.282283,7.254184 -2.896139,-2.901673 2.896139,-2.901673 c 1.592878,-1.595923 2.914862,-2.901675 2.937739,-2.901675 0.02292,0 1.344864,1.305752 2.937741,2.901675 l 2.896139,2.901673 -2.896139,2.901673 c -1.592877,1.59592 -2.914861,2.901675 -2.937741,2.901675 -0.02292,0 -1.344861,-1.305755 -2.937739,-2.901675 z m 4.385995,-4.352287 -1.427566,-1.430184 -1.437687,1.440323 -1.437688,1.440323 1.427122,1.430189 1.42712,1.43019 1.438133,-1.440328 1.438131,-1.440331 z"
       id="path1" /></g></svg>
