<?xml version="1.0" encoding="UTF-8"?>
<svg id="Capa_1" data-name="Capa 1" xmlns="http://www.w3.org/2000/svg" viewBox="0 0 30 30">
  <defs>
    <style>
      .cls-1 {
        fill: #333;
        fill-rule: evenodd;
        stroke-width: 0px;
      }
    </style>
  </defs>
  <g id="Group">
    <path id="Fill-1" class="cls-1" d="M19.67,8.35c0-1.84-2.23-3.33-4.99-3.33-.61,0-1.2.07-1.75.21l-1.63-.93,3.69-2.13,10.63,6.14c.81-.47,1.53-.88,2.12-1.22C25.1,2.84,20.38,0,15,0S4.92,2.83,2.27,7.08c.61.35,1.33.77,2.13,1.23l3.29-1.9,2.13,1.23c-.08.23-.12.47-.12.72,0,1.84,2.23,3.33,4.99,3.33s4.99-1.49,4.99-3.33ZM28.24,7.96l-2.12,1.23v3.84l-2.32,1.31c-.17-.2-.37-.37-.59-.5-1.59-.92-4,.26-5.38,2.64-1.38,2.38-1.22,5.06.37,5.99,1.59.92,4-.26,5.38-2.64.3-.51.53-1.04.68-1.57l1.86-1.08v4.26l-10.59,6.12v2.43c8.04-.28,14.47-6.88,14.47-14.99,0-2.55-.64-4.95-1.76-7.05ZM11.65,22.65c.1-.04.2-.09.3-.15,1.59-.92,1.75-3.6.37-5.99-1.38-2.38-3.79-3.57-5.38-2.64-1.59.92-1.75,3.6-.37,5.99.2.35.43.67.67.97v2.56l-3.36-1.94v-12.28l-2.11-1.22c-1.13,2.11-1.77,4.51-1.77,7.07,0,8.13,6.46,14.74,14.53,14.99v-2.41l-2.87-1.66v-3.28Z"/>
  </g>
</svg>